<svg id="Capa_1" data-name="Capa 1" xmlns="http://www.w3.org/2000/svg" viewBox="0 0 794.88 156.64"><defs><style>.cls-1{fill:#fff;}</style></defs><title>Nextline 2020 Blanco-27</title><path class="cls-1" d="M256.22,53a27.27,27.27,0,0,0-11-8.21q-6.92-2.93-17.35-2.93a125.18,125.18,0,0,0-20.56,1.51q-8.93,1.5-14.32,2.85v84.54h15.67V57.29c.56-.12,1.49-.28,2.78-.51s2.75-.42,4.38-.58,3.34-.31,5.14-.42,3.54-.17,5.22-.17a29.8,29.8,0,0,1,10.45,1.59,14.36,14.36,0,0,1,6.74,5.11,23.16,23.16,0,0,1,3.62,9.2A74,74,0,0,1,248,85.24v45.54h15.67V81.89A73.19,73.19,0,0,0,262,65.65,31.68,31.68,0,0,0,256.22,53Z"/><path class="cls-1" d="M567.55,2.48a10,10,0,0,0-7.16,2.78,9.78,9.78,0,0,0-2.95,7.49,9.79,9.79,0,0,0,2.95,7.5,10.61,10.61,0,0,0,14.32,0,9.83,9.83,0,0,0,2.95-7.5,9.82,9.82,0,0,0-2.95-7.49A10,10,0,0,0,567.55,2.48Z"/><rect class="cls-1" x="559.8" y="41.65" width="15.67" height="89.12"/><path class="cls-1" d="M658.87,53a27.27,27.27,0,0,0-11-8.21q-6.92-2.93-17.35-2.93a125.09,125.09,0,0,0-20.56,1.51q-8.92,1.5-14.32,2.85v84.54h15.67V57.29c.56-.12,1.49-.28,2.78-.51s2.75-.42,4.38-.58,3.34-.31,5.14-.42,3.53-.17,5.22-.17a29.8,29.8,0,0,1,10.45,1.59A14.28,14.28,0,0,1,646,62.31a23,23,0,0,1,3.63,9.2,74,74,0,0,1,1.09,13.73v45.54h15.67V81.89a73.19,73.19,0,0,0-1.68-16.24A31.68,31.68,0,0,0,658.87,53Z"/><polygon class="cls-1" points="481.7 2.58 466.16 2.58 466.16 41.98 453.6 41.98 453.6 58.16 466.16 58.16 466.16 130.78 481.7 130.78 481.7 58.16 503.21 58.16 503.21 41.98 481.7 41.98 481.7 2.58"/><rect class="cls-1" x="516.62" y="2.48" width="15.65" height="128.3"/><polygon class="cls-1" points="440.33 42.06 420.96 42.06 400.15 70.62 379.69 42.06 360.44 42.06 390.44 83.94 356.27 130.81 375.63 130.81 400.04 97.33 424.03 130.81 443.28 130.81 409.75 84.01 440.33 42.06"/><path class="cls-1" d="M317.71,41.65a41.17,41.17,0,0,0-14.83,2.78,36.58,36.58,0,0,0-12.81,8.34,40.93,40.93,0,0,0-8.93,14,52.83,52.83,0,0,0-3.37,19.71,57.52,57.52,0,0,0,2.61,17.74,35.95,35.95,0,0,0,21.74,23.23,52.35,52.35,0,0,0,18.65,3.3v.05h30.08V117.31h-29c-8.87-.26-15.49-2.52-19.81-6.81q-6.92-6.87-7.92-20.12h60a22.8,22.8,0,0,0,.17-2.86V85q0-21.91-9.44-32.63T317.71,41.65ZM294.45,78.12a36.35,36.35,0,0,1,2.11-8.67A24.39,24.39,0,0,1,301,61.93a22.51,22.51,0,0,1,7-5.32,21.23,21.23,0,0,1,9.52-2q9.61,0,15.09,6.62t5.31,16.93Z"/><path class="cls-1" d="M718.42,41.65a41.17,41.17,0,0,0-14.83,2.78,36.58,36.58,0,0,0-12.81,8.34,41.23,41.23,0,0,0-8.93,14,52.83,52.83,0,0,0-3.37,19.71,57.52,57.52,0,0,0,2.61,17.74,35.95,35.95,0,0,0,21.74,23.23,52.39,52.39,0,0,0,18.65,3.3v.05h30.08V117.31h-29c-8.86-.26-15.49-2.52-19.81-6.81q-6.91-6.87-7.92-20.12h60a22.8,22.8,0,0,0,.17-2.86V85q0-21.91-9.44-32.63T718.42,41.65ZM695.17,78.12a35.85,35.85,0,0,1,2.1-8.67,24.39,24.39,0,0,1,4.47-7.52,22.51,22.51,0,0,1,7-5.32,21.24,21.24,0,0,1,9.53-2q9.6,0,15.08,6.62t5.31,16.93Z"/><path class="cls-1" d="M775.9,1.86c-10.56,0-19.1,8.07-19.1,19.93s8.66,19.93,19.1,19.93,19-8.06,19-19.93S786.46,1.86,775.9,1.86Zm0,36.07c-8.54,0-15.07-6.65-15.07-16.14S767.47,5.54,775.9,5.54s15,6.76,15,16.25S784.32,37.93,775.9,37.93Z"/><path class="cls-1" d="M784.2,17.76c0-4.75-3.68-6.52-8-6.52h-7.71V31.76h4.15V24.64h4.16l3.56,7.12H785l-4.62-8.42A6,6,0,0,0,784.2,17.76Zm-8.9,3.68h-2.72V14.68h2.84c3.09,0,4.16,1.42,4.16,3.32C779.58,20.25,778,21.44,775.3,21.44Z"/><path class="cls-1" d="M49.4,66.82a74.49,74.49,0,0,1,19-16.69c7.11-4.31,12.21-5.65,15.61-6.23a26.48,26.48,0,0,1,9-.21,25,25,0,0,1,10.84,4.94c6.61,4.86,22.91,18.7,42.5,37l9.95-11.29L115.08,38c-1.3-1.26-12.09-11.39-27-9A31.16,31.16,0,0,0,70.84,38,143.46,143.46,0,0,0,59,52,141.92,141.92,0,0,0,49.4,66.82Z"/><path class="cls-1" d="M107.94,90.65a74.37,74.37,0,0,1-19,16.7c-7.11,4.3-12.21,5.65-15.61,6.23a26.75,26.75,0,0,1-9,.21,25.15,25.15,0,0,1-10.84-4.94C46.8,104,29.54,89.17,10,70.9L0,82.19,42.26,119.5c1.3,1.26,12.09,11.39,27,9a31.22,31.22,0,0,0,17.22-9.06,143.67,143.67,0,0,0,11.85-14A141.92,141.92,0,0,0,107.94,90.65Z"/><path class="cls-1" d="M66.9,108.19a74.37,74.37,0,0,1-16.7-19C45.9,82,44.55,76.94,44,73.54a26.77,26.77,0,0,1-.21-9A25,25,0,0,1,48.7,53.66C53.56,47.05,68.19,29.54,86.47,10L75.18,0,38.05,42.51c-1.26,1.3-11.39,12.09-9,27a31.16,31.16,0,0,0,9.06,17.22,142.48,142.48,0,0,0,14,11.85A140.88,140.88,0,0,0,66.9,108.19Z"/><path class="cls-1" d="M89.91,48.67a74.33,74.33,0,0,1,16.69,19c4.31,7.1,5.65,12.2,6.23,15.6a26.46,26.46,0,0,1,.21,9,25,25,0,0,1-4.94,10.84c-4.86,6.61-19.74,23.89-38,43.48l11.29,10,37.38-42.29c1.26-1.3,11.39-12.09,9-27a31.08,31.08,0,0,0-9.06-17.21,140.72,140.72,0,0,0-14-11.85A142.12,142.12,0,0,0,89.91,48.67Z"/></svg>